<?xml version="1.0" encoding="utf-8"?>
<!-- Generator: Adobe Illustrator 25.1.0, SVG Export Plug-In . SVG Version: 6.00 Build 0)  -->
<svg version="1.1" id="Layer_1" xmlns="http://www.w3.org/2000/svg" xmlns:xlink="http://www.w3.org/1999/xlink" x="0px" y="0px"
	 viewBox="0 0 62 62" style="enable-background:new 0 0 62 62;" xml:space="preserve">
<style type="text/css">
	.st0{fill:#333333;}
	.st1{fill:none;}
</style>
<g>
	<path class="st0" d="M37.6,30.5h-4.5v-8c0-0.5-0.4-1-0.9-1.1c-0.5-0.1-1,0.1-1.3,0.5l-7.7,13c-0.2,0.4-0.2,0.8,0,1.2
		c0.2,0.4,0.6,0.6,1,0.6h4.5v8c0,0.5,0.4,1,0.9,1.1c0.1,0,0.2,0,0.3,0c0.4,0,0.8-0.2,1-0.6l7.7-13c0.2-0.4,0.2-0.8,0-1.2
		C38.4,30.7,38.1,30.5,37.6,30.5z"/>
	<path class="st0" d="M49.7,32.5h-1.2v-1.2c0-0.6-0.5-1.2-1.2-1.2c-0.6,0-1.2,0.5-1.2,1.2v1.2h-1.2c-0.6,0-1.2,0.5-1.2,1.2
		s0.5,1.2,1.2,1.2h1.2v1.2c0,0.6,0.5,1.2,1.2,1.2c0.6,0,1.2-0.5,1.2-1.2v-1.2h1.2c0.6,0,1.2-0.5,1.2-1.2S50.3,32.5,49.7,32.5z"/>
	<path class="st0" d="M17.1,32.5h-4.8c-0.6,0-1.2,0.5-1.2,1.2c0,0.6,0.5,1.2,1.2,1.2h4.8c0.6,0,1.2-0.5,1.2-1.2
		C18.3,33,17.8,32.5,17.1,32.5z"/>
	<path class="st0" d="M59.8,19.6c1,0,1.8-0.8,1.8-1.8v-6.1c0-1-0.8-1.8-1.8-1.8h-4.8V6.4c0-1-0.8-1.8-1.8-1.8H41.5
		c-1,0-1.8,0.8-1.8,1.8v3.5h-3.4c-1,0-1.8,0.8-1.8,1.8c0,1,0.8,1.8,1.8,1.8h21.7V16H4.1v-2.5h21.7c1,0,1.8-0.8,1.8-1.8
		c0-1-0.8-1.8-1.8-1.8h-3.4V6.4c0-1-0.8-1.8-1.8-1.8H8.9c-1,0-1.8,0.8-1.8,1.8v3.5H2.2c-1,0-1.8,0.8-1.8,1.8v6.1
		c0,1,0.8,1.8,1.8,1.8h1.7v28.1H2.2c-1,0-1.8,0.8-1.8,1.8v6.1c0,1,0.8,1.8,1.8,1.8h57.5c1,0,1.8-0.8,1.8-1.8v-6.1
		c0-1-0.8-1.8-1.8-1.8h-1.7V19.6H59.8z M18.7,8.2v1.7h-8V8.2H18.7z M51.3,8.2v1.7h-8V8.2H51.3z M4.1,53.8v-2.5h53.9v2.5H4.1z
		 M7.5,47.7V19.6h46.9v28.1H7.5z"/>
	<path class="st0" d="M31,13.5L31,13.5c0.8,0,1.5-0.5,1.7-1.2c0.2-0.7,0-1.5-0.6-2C31.8,10,31.4,9.9,31,9.9c-0.3,0-0.7,0.1-1,0.3
		c-0.8,0.5-1.1,1.4-0.7,2.2C29.6,13,30.3,13.5,31,13.5z"/>
</g>
</svg>
