<?xml version="1.0" encoding="utf-8"?>
<!-- Generator: Adobe Illustrator 25.1.0, SVG Export Plug-In . SVG Version: 6.00 Build 0)  -->
<svg version="1.1" id="Layer_1" xmlns="http://www.w3.org/2000/svg" xmlns:xlink="http://www.w3.org/1999/xlink" x="0px" y="0px"
	 viewBox="0 0 62 62" style="enable-background:new 0 0 62 62;" xml:space="preserve">
<style type="text/css">
	.st0{fill:#333333;}
	.st1{fill:#CF3333;}
</style>
<path class="st0" d="M61.6,39.8l-6.9-24.6c-0.2-0.6-0.8-1.1-1.4-1.1H9.9c-0.7,0-1.3,0.4-1.4,1.1L1.6,39.8c-0.2,0.8,0.2,1.5,0.9,1.8
	c0.6,0.2,14.8,5,29,5s28.4-4.8,29-5C61.3,41.4,61.8,40.6,61.6,39.8z M51.3,41.1l-4.5-4.5v-6.3c0-0.8-0.7-1.5-1.5-1.5
	s-1.5,0.7-1.5,1.5v3.4L33.6,23.4c-0.3-0.3-0.7-0.4-1-0.4s-0.8,0.2-1,0.4c-0.6,0.6-0.6,1.5,0,2.1l16.3,16.3
	c-5.3,1.1-10.2,1.6-14.7,1.8l-4-4v-6.3c0-0.8-0.7-1.5-1.5-1.5s-1.5,0.7-1.5,1.5v3.4L14.9,25.4c-0.3-0.3-0.7-0.4-1-0.4
	s-0.8,0.2-1,0.4c-0.3,0.3-0.4,0.7-0.4,1s0.2,0.8,0.4,1l16.1,16.1c-10.5-0.4-20.5-3.3-24.1-4.4l6.2-22.1h41l6.2,22.1
	C56.9,39.7,54.4,40.4,51.3,41.1z"/>
</svg>
