<?xml version="1.0" encoding="utf-8"?>
<!-- Generator: Adobe Illustrator 25.1.0, SVG Export Plug-In . SVG Version: 6.00 Build 0)  -->
<svg version="1.1" id="Layer_1" xmlns="http://www.w3.org/2000/svg" xmlns:xlink="http://www.w3.org/1999/xlink" x="0px" y="0px"
	 viewBox="0 0 62 62" style="enable-background:new 0 0 62 62;" xml:space="preserve">
<style type="text/css">
	.st0{fill:#333333;}
	.st1{fill:none;}
</style>
<g>
	<g>
		<circle class="st0" cx="29.3" cy="51.4" r="1.7"/>
	</g>
</g>
<g>
	<g>
		<circle class="st0" cx="10.6" cy="32.7" r="1.7"/>
	</g>
</g>
<g>
	<g>
		<circle class="st0" cx="16.1" cy="45.9" r="1.7"/>
	</g>
</g>
<g>
	<g>
		<circle class="st0" cx="16.1" cy="19.4" r="1.7"/>
	</g>
</g>
<g>
	<g>
		<circle class="st0" cx="42.5" cy="45.9" r="1.7"/>
	</g>
</g>
<g>
	<g>
		<path class="st0" d="M31,2c-0.9,0-1.7,0.8-1.7,1.7v1.7C14.3,5.4,2,17.7,2,32.7C2,47.7,14.3,60,29.3,60c15,0,27.2-12.3,27.2-27.3
			h1.8c0.9,0,1.7-0.8,1.7-1.7C60,15,47,2,31,2z M29.3,56.6c-13.2,0-23.9-10.7-23.9-23.9S16.1,8.8,29.3,8.8v5.1
			c0,0.9,0.8,1.7,1.7,1.7c8.4,0,15.3,6.9,15.3,15.4c0,0.9,0.8,1.7,1.7,1.7h5.1C53.1,45.9,42.4,56.6,29.3,56.6z"/>
	</g>
</g>
<g>
	<g>
		<path class="st0" d="M29.3,19c-7.5,0-13.6,6.2-13.6,13.7c0,7.5,6.1,13.6,13.6,13.6s13.6-6.1,13.6-13.6C42.9,25.1,36.8,19,29.3,19z
			 M29.3,42.9c-5.6,0-10.2-4.6-10.2-10.2c0-5.7,4.6-10.3,10.2-10.3S39.5,27,39.5,32.7C39.5,38.3,34.9,42.9,29.3,42.9z"/>
	</g>
</g>
<g>
	<g>
		<path class="st0" d="M29.3,25.9c-3.8,0-6.8,3.1-6.8,6.8s3.1,6.8,6.8,6.8s6.8-3.1,6.8-6.8S33.1,25.9,29.3,25.9z M29.3,36.1
			c-1.9,0-3.4-1.5-3.4-3.4s1.5-3.4,3.4-3.4s3.4,1.5,3.4,3.4S31.2,36.1,29.3,36.1z"/>
	</g>
</g>
</svg>
